<svg width="100" height="100" viewBox="0 0 100 100" version="1.1" xmlns="http://www.w3.org/2000/svg" xmlns:xlink="http://www.w3.org/1999/xlink">
<title>yt</title>
<desc>Created using Figma</desc>
<g id="Canvas" transform="translate(-3191 -981)">
<clipPath id="clip-0" clip-rule="evenodd">
<path d="M 3191 981L 3291 981L 3291 1081L 3191 1081L 3191 981Z" fill="#FFFFFF"/>
</clipPath>
<g id="yt" clip-path="url(#clip-0)">
<g id="youtube-icon">
<g id="Vector">
<use xlink:href="#path0_fill" transform="translate(3234.13 1020.92)" fill="#FFFFFF"/>
</g>
<g id="Vector">
<use xlink:href="#path1_fill" transform="translate(3234.13 1020.92)" fill="#E8E0E0"/>
</g>
<g id="Vector">
<use xlink:href="#path2_fill" transform="translate(3207.68 1007.6)" fill="#CD201F"/>
</g>
</g>
</g>
</g>
<defs>
<path id="path0_fill" d="M 17.9412 9.4015C 11.831 6.1362 5.98041 3.13425 -3.96182e-07 -7.73498e-07L -3.96182e-07 18.7498C 6.29322 15.3288 12.9264 12.1957 17.9672 9.4015L 17.9412 9.4015L 17.9412 9.4015Z"/>
<path id="path1_fill" d="M 17.9412 9.4015C 11.831 6.1362 -3.96182e-07 -7.73498e-07 -3.96182e-07 -7.73498e-07L 15.7739 10.602C 15.7751 10.602 12.9005 12.1957 17.9412 9.4015Z"/>
<path id="path2_fill" d="M 27.5998 46.7454C 14.9082 46.5117 10.5735 46.3015 7.90904 45.7526C 6.10639 45.3878 4.53988 44.578 3.39128 43.4034C 2.50355 42.5145 1.79757 41.1582 1.24985 39.2764C 0.780025 37.7086 0.597039 36.4042 0.336161 33.2181C -0.0631927 26.0272 -0.158395 20.1482 0.336161 13.5793C 0.744169 9.9517 0.941991 5.64535 3.65216 3.13301C 4.93182 1.9572 6.42043 1.20053 8.09203 0.887728C 10.7033 0.391936 21.8283 1.88658e-08 33.3453 1.88658e-08C 44.8363 1.88658e-08 55.986 0.391936 58.5998 0.887728C 60.688 1.27966 62.6465 2.45423 63.7963 3.96881C 66.2691 7.85849 66.3124 12.6952 66.5633 16.4786C 66.6672 18.2812 66.6672 28.5173 66.5633 30.32C 66.1726 36.2991 65.8586 38.4146 64.9709 40.608C 64.4219 41.9927 63.9533 42.7234 63.1423 43.5333C 61.8702 44.7795 60.2486 45.6084 58.4934 45.9096C 47.5106 46.7355 38.1845 46.9148 27.5998 46.7454L 27.5998 46.7454ZM 44.4184 22.7199C 38.3081 19.4546 32.4575 16.4267 26.4771 13.2924L 26.4771 32.0435C 32.7704 28.6224 39.4048 25.4882 44.4443 22.6939L 44.4184 22.7199Z"/>
</defs>
</svg>
